<svg xmlns="http://www.w3.org/2000/svg" viewBox="0 0 135.14 23.03"><defs><style>.cls-1{fill:#bbb;}.cls-2{fill:none;stroke:#bbb;stroke-miterlimit:10;stroke-width:1.83px;}</style></defs><title>Asset 1</title><g id="Layer_2" data-name="Layer 2"><g id="Layer_3" data-name="Layer 3"><path class="cls-1" d="M0,11.7V.43H2.19V9.6h5v2.1Z"/><path class="cls-1" d="M9.32,0A1.3,1.3,0,1,1,8,1.32,1.3,1.3,0,0,1,9.32,0Zm-1,11.7V3.88h2.11V11.7Z"/><path class="cls-1" d="M14.75,3v.86h1.76V5.69H14.75v6H12.62v-6h-1.3V3.88h1.3V3A2.7,2.7,0,0,1,15.47.08a3.08,3.08,0,0,1,1,.16V2a2.37,2.37,0,0,0-.67-.08A1,1,0,0,0,14.75,3Z"/><path class="cls-1" d="M20.57,3.88h1.57V5.76H20.57V9c0,.68.32.91.92.91a3.08,3.08,0,0,0,.65-.06v1.75a3.14,3.14,0,0,1-1.19.19A2.26,2.26,0,0,1,18.47,9.4V5.76H17.05V3.88h.4a1.13,1.13,0,0,0,1.21-1.24V1.54h1.91Z"/><path class="cls-1" d="M30.46,9.46a3.52,3.52,0,0,1-3.56,2.48,4,4,0,0,1-4-4.18,3.93,3.93,0,0,1,3.85-4.12c2.42,0,3.86,1.54,3.86,4.05,0,.3,0,.62,0,.65h-5.6a1.91,1.91,0,0,0,2,1.78A1.73,1.73,0,0,0,28.7,8.94Zm-2-2.56a1.57,1.57,0,0,0-1.75-1.54A1.69,1.69,0,0,0,25,6.9Z"/><path class="cls-1" d="M39.48,10.29c0,.52,0,1.1.06,1.42h-2a5.38,5.38,0,0,1-.08-.91,2.45,2.45,0,0,1-2.19,1.1,3.85,3.85,0,0,1-3.82-4.12,3.82,3.82,0,0,1,3.75-4.09,2.34,2.34,0,0,1,2.21,1V.19h2.08Zm-4-.29a2,2,0,0,0,1.92-2.24,1.94,1.94,0,0,0-1.92-2.18,2,2,0,0,0-1.94,2.19A2,2,0,0,0,35.51,10Z"/><path class="cls-1" d="M51.47,3.72a1.92,1.92,0,0,0-2.05-1.59,1.6,1.6,0,0,0-1.77,1.43c0,.62.4,1.11,1.22,1.27l1.57.3c2.05.4,3.15,1.73,3.15,3.32s-1.45,3.48-4.07,3.48c-3,0-4.31-1.92-4.48-3.53l2-.54A2.26,2.26,0,0,0,49.55,10c1.18,0,1.83-.59,1.83-1.38S50.88,7.44,50,7.27l-1.57-.32a3.28,3.28,0,0,1-3-3.23A3.73,3.73,0,0,1,49.4.19c2.73,0,3.78,1.65,4,2.93Z"/><path class="cls-1" d="M55.27,14.79l1.84-4.07L53.79,3.88h2.37l2.08,4.58,1.92-4.58h2.26L57.52,14.79Z"/><path class="cls-1" d="M64.38,9.13a1.3,1.3,0,0,0,1.43,1.19c.7,0,1-.37,1-.78S66.6,8.9,66,8.78l-1-.24C63.45,8.2,62.77,7.3,62.77,6.2A2.73,2.73,0,0,1,65.7,3.64c2.23,0,3,1.42,3.07,2.26L67,6.3a1.19,1.19,0,0,0-1.29-1,.9.9,0,0,0-1,.78c0,.38.29.62.72.7L66.54,7c1.54.32,2.32,1.26,2.32,2.4s-1,2.58-3,2.58c-2.35,0-3.16-1.53-3.26-2.42Z"/><path class="cls-1" d="M73,3.88h1.57V5.76H73V9c0,.68.32.91.92.91a3.08,3.08,0,0,0,.65-.06v1.75a3.14,3.14,0,0,1-1.19.19A2.26,2.26,0,0,1,70.91,9.4V5.76H69.5V3.88h.4A1.13,1.13,0,0,0,71.1,2.64V1.54H73Z"/><path class="cls-1" d="M82.91,9.46a3.52,3.52,0,0,1-3.56,2.48,4,4,0,0,1-4-4.18,3.93,3.93,0,0,1,3.85-4.12C81.57,3.64,83,5.18,83,7.7c0,.3,0,.62,0,.65h-5.6a1.91,1.91,0,0,0,2,1.78,1.73,1.73,0,0,0,1.78-1.19Zm-2-2.56a1.57,1.57,0,0,0-1.75-1.54A1.69,1.69,0,0,0,77.44,6.9Z"/><path class="cls-1" d="M84.37,11.7V3.88h2v1a2.69,2.69,0,0,1,2.29-1.18A2.42,2.42,0,0,1,91,5a2.89,2.89,0,0,1,5.31,1.67V11.7H94.26V7.06a1.3,1.3,0,0,0-1.38-1.48,1.44,1.44,0,0,0-1.45,1.54V11.7h-2.1V7.06a1.31,1.31,0,0,0-1.38-1.48,1.43,1.43,0,0,0-1.46,1.54V11.7Z"/><path class="cls-1" d="M99.32,9.13a1.3,1.3,0,0,0,1.43,1.19c.7,0,1-.37,1-.78s-.24-.64-.84-.76l-1-.24C98.4,8.2,97.72,7.3,97.72,6.2a2.73,2.73,0,0,1,2.93-2.56c2.23,0,3,1.42,3.07,2.26l-1.76.4a1.19,1.19,0,0,0-1.29-1,.9.9,0,0,0-1,.78c0,.38.29.62.72.7l1.11.24c1.54.32,2.32,1.26,2.32,2.4s-1,2.58-3,2.58c-2.35,0-3.16-1.53-3.26-2.42Z"/><path class="cls-1" d="M109.59,11.7V.43h2.19V9.6h5v2.1Z"/><path class="cls-1" d="M120.2,3.88h1.57V5.76H120.2V9c0,.68.32.91.92.91a3.08,3.08,0,0,0,.65-.06v1.75a3.14,3.14,0,0,1-1.19.19A2.26,2.26,0,0,1,118.1,9.4V5.76h-1.42V3.88h.4a1.13,1.13,0,0,0,1.21-1.24V1.54h1.91Z"/><path class="cls-1" d="M130.54,10.29c0,.52,0,1.1.06,1.42h-2a5.38,5.38,0,0,1-.08-.91,2.45,2.45,0,0,1-2.19,1.1,3.85,3.85,0,0,1-3.82-4.12,3.82,3.82,0,0,1,3.75-4.09,2.34,2.34,0,0,1,2.21,1V.19h2.08Zm-4-.29a2,2,0,0,0,1.92-2.24,1.94,1.94,0,0,0-1.92-2.18,2,2,0,0,0-1.94,2.19A2,2,0,0,0,126.56,10Z"/><path class="cls-1" d="M133.68,8.92a1.45,1.45,0,1,1-1.45,1.45A1.46,1.46,0,0,1,133.68,8.92Z"/><line class="cls-2" y1="22.11" x2="39.5" y2="22.11"/></g></g></svg>
